<svg preserveAspectRatio="none" overflow="visible" style="display: block;" width="100%" height="100%" viewBox="0 0 28 28" fill="none" xmlns="http://www.w3.org/2000/svg">
<g id="calendar-event">
<path id="Vector" d="M18.6667 3.5V8.16667M9.33333 3.5V8.16667M4.66667 12.8333H23.3333M4.66667 8.16667C4.66667 7.54783 4.9125 6.95434 5.35008 6.51675C5.78767 6.07917 6.38116 5.83333 7 5.83333H21C21.6188 5.83333 22.2123 6.07917 22.6499 6.51675C23.0875 6.95434 23.3333 7.54783 23.3333 8.16667V22.1667C23.3333 22.7855 23.0875 23.379 22.6499 23.8166C22.2123 24.2542 21.6188 24.5 21 24.5H7C6.38116 24.5 5.78767 24.2542 5.35008 23.8166C4.9125 23.379 4.66667 22.7855 4.66667 22.1667V8.16667ZM9.33333 17.5H11.6667V19.8333H9.33333V17.5Z" stroke="var(--stroke-0, black)" stroke-width="1.5" stroke-linecap="round" stroke-linejoin="round"/>
</g>
</svg>
