<svg preserveAspectRatio="none" width="100%" height="100%" overflow="visible" style="display: block;" viewBox="0 0 24 24" fill="none" xmlns="http://www.w3.org/2000/svg">
<g id="icn_manufacturing-v2">
<path id="Vector" d="M5.0625 17.1H11.625C13.1625 17.1 14.4375 18.375 14.4375 19.9125V22.3125H2.25V19.9125C2.25 18.375 3.525 17.1 5.0625 17.1Z" stroke="var(--stroke-0, #00A991)" stroke-width="1.5" stroke-linecap="round" stroke-linejoin="round"/>
<path id="Vector_2" d="M5.73743 17.1V7.76248" stroke="var(--stroke-0, #00A991)" stroke-width="1.5" stroke-linecap="round" stroke-linejoin="round"/>
<path id="Vector_3" d="M10.9501 17.1V7.76248" stroke="var(--stroke-0, #00A991)" stroke-width="1.5" stroke-linecap="round" stroke-linejoin="round"/>
<path id="Vector_4" d="M14.1749 1.6875H14.2124" stroke="var(--stroke-0, #00A991)" stroke-width="1.5" stroke-linecap="round" stroke-linejoin="round"/>
<path id="Vector_5" d="M5.77493 7.27496L5.73743 7.31246L5.77493 7.34996" stroke="var(--stroke-0, #00A991)" stroke-width="1.5" stroke-linecap="round" stroke-linejoin="round"/>
<path id="Vector_6" d="M10.9124 7.57496L10.9499 7.53746L13.9124 5.58746" stroke="var(--stroke-0, #00A991)" stroke-width="1.5" stroke-linecap="round" stroke-linejoin="round"/>
<path id="Vector_7" d="M12.4124 2.85004L8.84985 5.21254" stroke="var(--stroke-0, #00A991)" stroke-width="1.5" stroke-linecap="round" stroke-linejoin="round"/>
<path id="Vector_8" d="M15.9374 2.8125L19.4624 5.0625C20.1749 5.5125 20.3999 6.4875 19.9499 7.2C19.6499 7.65 19.1624 7.9125 18.6374 7.9125C18.1124 7.9125 18.0749 7.8375 17.8124 7.6875L14.5499 5.625" stroke="var(--stroke-0, #00A991)" stroke-width="1.5" stroke-linecap="round" stroke-linejoin="round"/>
<path id="Vector_9" d="M20.0251 9.78752V7.05002" stroke="var(--stroke-0, #00A991)" stroke-width="1.5" stroke-linecap="round" stroke-linejoin="round"/>
<path id="Vector_10" d="M21.7501 11.6625V10.8L20.0251 9.78754H19.9876L18.2626 10.8V11.6625" stroke="var(--stroke-0, #00A991)" stroke-width="1.5" stroke-linecap="round" stroke-linejoin="round"/>
<path id="Vector_11" d="M14.1749 5.5875C15.2518 5.5875 16.1249 4.71446 16.1249 3.6375C16.1249 2.56054 15.2518 1.6875 14.1749 1.6875C13.0979 1.6875 12.2249 2.56054 12.2249 3.6375C12.2249 4.71446 13.0979 5.5875 14.1749 5.5875Z" stroke="var(--stroke-0, #00A991)" stroke-width="1.5" stroke-linecap="round" stroke-linejoin="round"/>
<path id="Vector_12" d="M8.32493 10.35C9.75396 10.35 10.9124 9.19156 10.9124 7.76252C10.9124 6.33348 9.75396 5.17502 8.32493 5.17502C6.89589 5.17502 5.73743 6.33348 5.73743 7.76252C5.73743 9.19156 6.89589 10.35 8.32493 10.35Z" stroke="var(--stroke-0, #00A991)" stroke-width="1.5" stroke-linecap="round" stroke-linejoin="round"/>
</g>
</svg>
